#!OML:ASF F:\VICON\USERDATA\INSTALL\rory3\rory3.ASF
:FULLY-SPECIFIED
:DEGREES
212
root 0.9520244954257202 18.009049285152578 44.29892741705188 2.1410177920914313 1.1253692042608963 0.53067290201336
lfemur -17.20871238543995 2.324337188491669 -21.165433592725048
ltibia 52.652031674895916
lfoot -0.20139296169370868 -9.491258616104803
ltoes -6.028644361109211
rfemur -19.213886051951267 5.091513738653127 27.601794495807923
rtibia 52.95573600109161
rfoot -1.3347844843987802 -5.87145000634475
rtoes 1.8802299887106892
lowerback 12.898339265293174 0.1117676889807595 -0.3228202905614439
upperback -0.7951666892668027 0.6244533110723409 1.463234313624438
thorax -8.27893355926822 0.7828698702969169 1.53554099189352
lowerneck -20.04373916262837 -3.8828390265345196 -1.7354836677825478
upperneck 9.842741754265475 -5.466002206539113 3.002240735194867
head 6.424182896186847 -2.3613999649890918 0.7556995625392651
lclavicle 4.287488207731266e-15 5.75886165290891e-17
lhumerus -46.20491077443984 -12.716413010505871 96.69225053845378
lradius 109.2799319889478
lwrist 28.96842980827734
lhand -29.577444699850595 2.7463646833045856
lfingers 7.125019999999998
lthumb -3.4451135702720475 32.87643398938135
rclavicle 4.28752700038245e-15 5.761646213958064e-17
rhumerus -46.777196381214345 13.882337699007188 -99.41986180743832
rradius 105.92316859611772
rwrist -9.412114455323001
rhand -20.414218454946187 36.3445381902126
rfingers 7.125019999999998
rthumb 6.145142186515232 6.3415438067245535
213
root 0.8361605707254398 17.816102208241833 37.573306613096804 1.5866988764924423 -0.016014478477328842 -0.2013653040448833
lfemur -16.92380641940738 2.4745458878797812 -20.822362322297188
ltibia 52.91185148392677
lfoot 1.141871879974879 -8.873319863312869
ltoes -6.158552928690686
rfemur -18.47490524288017 5.149850651506492 28.32395400472729
rtibia 53.280451890334454
rfoot 0.31375230666115816 -5.0361020620131915
rtoes 1.0376856710563442
lowerback 12.862174387875411 0.09460157920788181 -0.34726967651378127
upperback -0.7656935373468957 0.6529626380992009 1.4944802959174106
thorax -8.273330560489804 0.8205034820091738 1.465904110384577
lowerneck -19.79180292192647 -3.822984269862296 -1.7010360796878972
upperneck 9.850680670631288 -5.608663130723471 2.9620706008708404
head 6.443271851409829 -2.344245528484025 0.7669854997886875
lclavicle 4.287488207731266e-15 5.75886165290891e-17
lhumerus -47.34970317568638 -12.946963222607165 96.4664541732883
lradius 109.6306993506307
lwrist 29.071114322988517
lhand -29.516085982308425 2.855278284787013
lfingers 7.125019999999998
lthumb -3.4223814276711217 32.92481678639583
rclavicle 4.28752700038245e-15 5.761646213958064e-17
rhumerus -46.99741433305459 13.72113195397341 -99.41710666841455
rradius 106.01612116623605
rwrist -9.314205435277415
rhand -20.404932238449586 36.37144025043932
rfingers 7.125019999999998
rthumb 5.983378148598721 6.207789151313033
214
root 0.8962414833071912 17.885676076657667 42.243176450857284 1.8862378072402575 0.751203628697874 0.26996997688641833
lfemur -18.650347184413604 2.3443066791711002 -21.247543013586856
ltibia 53.23667766607678
lfoot 2.1189123158092444 -8.815985000561506
ltoes -6.3853540759499205
rfemur -19.759430475151547 4.684199534499569 27.528261711645655
rtibia 53.542363067408424
rfoot -0.0042726590742772075 -4.460059871967774
rtoes 0.6762657733516009
lowerback 12.8829409884069 0.10921975982050358 -0.16948001891171782
upperback -0.7311318924823171 0.7349228326248871 1.5360170922920497
thorax -8.381288502289404 0.6778579843584422 1.0532416882521354
lowerneck -19.749668481883315 -3.922528982733512 -1.7915928724678607
upperneck 9.933236801187523 -5.679963772863483 2.971155818248753
head 6.394943250600225 -2.345961102886626 0.7683471684066367
lclavicle 4.287488207731266e-15 5.75886165290891e-17
lhumerus -46.917922877548534 -13.021320534820298 96.42391499357441
lradius 109.37385253050378
lwrist 29.088612657713444
lhand -29.64293560019113 2.7456390381025835
lfingers 7.125019999999998
lthumb -3.3691610066181252 32.942452629537264
rclavicle 4.28752700038245e-15 5.761646213958064e-17
rhumerus -47.13771648240981 13.570884633572195 -99.4101673066844
rradius 106.03037074920664
rwrist -9.290479308365661
rhand -20.358768294044967 36.46465129826153
rfingers 7.125019999999998
rthumb 6.042248424603529 6.217052103319055
215
root 0.8228900559670003 17.75411945617276 37.5143662060525 1.5149378026417826 -0.17025634084295094 -0.16771231864304004
lfemur -15.972989004946678 3.0613285463667927 -20.193851990831824
ltibia 53.56245078975249
lfoot 4.201894866768323 -9.161269800028132
ltoes -6.164179931088537
rfemur -17.22290275303344 5.243203772514541 28.39760097394109
rtibia 53.69323855679323
rfoot -0.7835219285654765 -4.335490679095361
rtoes 0.3770141535802888
lowerback 13.037178481917122 0.23275886388904377 0.2859536624150686
upperback -0.7057928522425391 0.8178111061199698 1.5666840874378407
thorax -8.332049607483064 0.7470890321474992 1.0660730190561312
lowerneck -19.57957583868224 -3.897914463245299 -1.7778487313037372
upperneck 9.966705150195391 -5.700261769245683 2.9976920929287934
head 6.358440127407312 -2.3453494145000655 0.7752212435478872
lclavicle 4.287488207731266e-15 5.75886165290891e-17
lhumerus -47.98929241725233 -13.101715095356816 96.31664814541725
lradius 109.4345666174271
lwrist 29.069620008721653
lhand -29.62797776759732 2.884143563406133
lfingers 7.125019999999998
lthumb -3.309465829212232 32.95034320087566
rclavicle 4.28752700038245e-15 5.761646213958064e-17
rhumerus -47.1695003531267 13.473205036693898 -99.38261845654927
rradius 106.12260189463684
rwrist -9.225435175626629
rhand -20.366860178241968 36.425898733588255
rfingers 7.125019999999998
rthumb 5.946841757938042 6.111356986144572
